<mxfile host="app.diagrams.net" modified="2023-09-27T10:17:27.463Z" agent="Mozilla/5.0 (Windows NT 10.0; Win64; x64) AppleWebKit/537.36 (KHTML, like Gecko) Chrome/117.0.0.0 Safari/537.36" etag="DouRCIBClLPOU_bWKApb" version="21.8.2" type="device">
  <diagram name="Page-1" id="RCDkOZSIluDnZltq5GkN">
    <mxGraphModel dx="2049" dy="1311" grid="1" gridSize="10" guides="1" tooltips="1" connect="1" arrows="1" fold="1" page="1" pageScale="1" pageWidth="1169" pageHeight="827" math="0" shadow="0">
      <root>
        <mxCell id="0" />
        <mxCell id="1" parent="0" />
        <mxCell id="5Fb5_ttYT_Sp9hCFf5mJ-177" value="" style="group" vertex="1" connectable="0" parent="1">
          <mxGeometry x="-980" y="-700" width="4420" height="3880" as="geometry" />
        </mxCell>
        <mxCell id="5Fb5_ttYT_Sp9hCFf5mJ-1" value="" style="rounded=0;whiteSpace=wrap;html=1;" vertex="1" parent="5Fb5_ttYT_Sp9hCFf5mJ-177">
          <mxGeometry x="1000" y="270" width="1480" height="2510" as="geometry" />
        </mxCell>
        <mxCell id="5Fb5_ttYT_Sp9hCFf5mJ-2" value="&lt;font style=&quot;font-size: 28px;&quot;&gt;&lt;b&gt;Stocks Portfolio Management System&lt;/b&gt;&lt;/font&gt;" style="text;html=1;strokeColor=none;fillColor=none;align=center;verticalAlign=middle;whiteSpace=wrap;rounded=0;" vertex="1" parent="5Fb5_ttYT_Sp9hCFf5mJ-177">
          <mxGeometry x="1470" y="290" width="520" height="83" as="geometry" />
        </mxCell>
        <mxCell id="5Fb5_ttYT_Sp9hCFf5mJ-26" value="" style="group" vertex="1" connectable="0" parent="5Fb5_ttYT_Sp9hCFf5mJ-177">
          <mxGeometry x="480" y="340" width="480" height="370" as="geometry" />
        </mxCell>
        <mxCell id="5Fb5_ttYT_Sp9hCFf5mJ-3" value="&lt;font style=&quot;font-size: 16px;&quot;&gt;&lt;b&gt;Employee&lt;/b&gt;&lt;/font&gt;" style="shape=umlActor;verticalLabelPosition=bottom;verticalAlign=top;html=1;" vertex="1" parent="5Fb5_ttYT_Sp9hCFf5mJ-26">
          <mxGeometry x="220" width="50" height="90" as="geometry" />
        </mxCell>
        <mxCell id="5Fb5_ttYT_Sp9hCFf5mJ-5" value="" style="shape=umlActor;verticalLabelPosition=bottom;verticalAlign=top;html=1;shadow=0;fillStyle=auto;fillColor=#d80073;fontColor=#ffffff;strokeColor=#A50040;strokeWidth=6;" vertex="1" parent="5Fb5_ttYT_Sp9hCFf5mJ-26">
          <mxGeometry x="120" y="290" width="50" height="80" as="geometry" />
        </mxCell>
        <mxCell id="5Fb5_ttYT_Sp9hCFf5mJ-6" value="" style="shape=umlActor;verticalLabelPosition=bottom;verticalAlign=top;html=1;fillColor=#fa6800;fontColor=#000000;strokeColor=#C73500;strokeWidth=6;" vertex="1" parent="5Fb5_ttYT_Sp9hCFf5mJ-26">
          <mxGeometry x="220" y="290" width="50" height="80" as="geometry" />
        </mxCell>
        <mxCell id="5Fb5_ttYT_Sp9hCFf5mJ-7" value="" style="shape=umlActor;verticalLabelPosition=bottom;verticalAlign=top;html=1;fillColor=#e3c800;fontColor=#000000;strokeColor=#B09500;strokeWidth=6;" vertex="1" parent="5Fb5_ttYT_Sp9hCFf5mJ-26">
          <mxGeometry x="320" y="290" width="50" height="80" as="geometry" />
        </mxCell>
        <mxCell id="5Fb5_ttYT_Sp9hCFf5mJ-9" value="" style="shape=umlActor;verticalLabelPosition=bottom;verticalAlign=top;html=1;strokeWidth=6;" vertex="1" parent="5Fb5_ttYT_Sp9hCFf5mJ-26">
          <mxGeometry x="430" y="290" width="50" height="80" as="geometry" />
        </mxCell>
        <mxCell id="5Fb5_ttYT_Sp9hCFf5mJ-18" value="" style="endArrow=none;html=1;rounded=0;strokeWidth=7;fillColor=#1ba1e2;strokeColor=#006EAF;" edge="1" parent="5Fb5_ttYT_Sp9hCFf5mJ-26">
          <mxGeometry width="50" height="50" relative="1" as="geometry">
            <mxPoint x="20" y="250" as="sourcePoint" />
            <mxPoint x="460" y="250" as="targetPoint" />
          </mxGeometry>
        </mxCell>
        <mxCell id="5Fb5_ttYT_Sp9hCFf5mJ-19" value="" style="endArrow=none;html=1;rounded=0;strokeWidth=7;fillColor=#1ba1e2;strokeColor=#006EAF;" edge="1" parent="5Fb5_ttYT_Sp9hCFf5mJ-26">
          <mxGeometry width="50" height="50" relative="1" as="geometry">
            <mxPoint x="20" y="290" as="sourcePoint" />
            <mxPoint x="20" y="250" as="targetPoint" />
          </mxGeometry>
        </mxCell>
        <mxCell id="5Fb5_ttYT_Sp9hCFf5mJ-21" value="" style="endArrow=none;html=1;rounded=0;strokeWidth=7;fillColor=#1ba1e2;strokeColor=#006EAF;" edge="1" parent="5Fb5_ttYT_Sp9hCFf5mJ-26">
          <mxGeometry width="50" height="50" relative="1" as="geometry">
            <mxPoint x="454.5" y="290" as="sourcePoint" />
            <mxPoint x="454.5" y="250" as="targetPoint" />
          </mxGeometry>
        </mxCell>
        <mxCell id="5Fb5_ttYT_Sp9hCFf5mJ-22" value="" style="endArrow=none;html=1;rounded=0;strokeWidth=7;fillColor=#1ba1e2;strokeColor=#006EAF;" edge="1" parent="5Fb5_ttYT_Sp9hCFf5mJ-26">
          <mxGeometry width="50" height="50" relative="1" as="geometry">
            <mxPoint x="344.5" y="290" as="sourcePoint" />
            <mxPoint x="344.5" y="250" as="targetPoint" />
            <Array as="points">
              <mxPoint x="344.5" y="270" />
            </Array>
          </mxGeometry>
        </mxCell>
        <mxCell id="5Fb5_ttYT_Sp9hCFf5mJ-23" value="" style="endArrow=none;html=1;rounded=0;strokeWidth=7;fillColor=#1ba1e2;strokeColor=#006EAF;" edge="1" parent="5Fb5_ttYT_Sp9hCFf5mJ-26">
          <mxGeometry width="50" height="50" relative="1" as="geometry">
            <mxPoint x="244.5" y="290" as="sourcePoint" />
            <mxPoint x="244.5" y="250" as="targetPoint" />
          </mxGeometry>
        </mxCell>
        <mxCell id="5Fb5_ttYT_Sp9hCFf5mJ-24" value="" style="endArrow=none;html=1;rounded=0;strokeWidth=7;fillColor=#1ba1e2;strokeColor=#006EAF;" edge="1" parent="5Fb5_ttYT_Sp9hCFf5mJ-26">
          <mxGeometry width="50" height="50" relative="1" as="geometry">
            <mxPoint x="144.5" y="290" as="sourcePoint" />
            <mxPoint x="144.5" y="250" as="targetPoint" />
          </mxGeometry>
        </mxCell>
        <mxCell id="5Fb5_ttYT_Sp9hCFf5mJ-25" value="Extends" style="endArrow=block;endSize=16;endFill=0;html=1;rounded=0;strokeWidth=7;fillColor=#1ba1e2;strokeColor=#006EAF;" edge="1" parent="5Fb5_ttYT_Sp9hCFf5mJ-26">
          <mxGeometry width="160" relative="1" as="geometry">
            <mxPoint x="244.5" y="250" as="sourcePoint" />
            <mxPoint x="245" y="120" as="targetPoint" />
          </mxGeometry>
        </mxCell>
        <mxCell id="5Fb5_ttYT_Sp9hCFf5mJ-4" value="" style="shape=umlActor;verticalLabelPosition=bottom;verticalAlign=top;html=1;perimeterSpacing=0;strokeWidth=6;shadow=0;fillColor=#008a00;fontColor=#ffffff;strokeColor=#005700;" vertex="1" parent="5Fb5_ttYT_Sp9hCFf5mJ-26">
          <mxGeometry y="290" width="50" height="80" as="geometry" />
        </mxCell>
        <mxCell id="5Fb5_ttYT_Sp9hCFf5mJ-27" value="&lt;font style=&quot;font-size: 18px;&quot;&gt;&lt;b&gt;Login System&lt;/b&gt;&lt;/font&gt;" style="ellipse;whiteSpace=wrap;html=1;fillColor=#fad7ac;strokeColor=#b46504;" vertex="1" parent="5Fb5_ttYT_Sp9hCFf5mJ-177">
          <mxGeometry x="1180" y="330" width="220" height="90" as="geometry" />
        </mxCell>
        <mxCell id="5Fb5_ttYT_Sp9hCFf5mJ-28" value="&lt;font style=&quot;font-size: 18px;&quot;&gt;&lt;b&gt;Update Profile&lt;/b&gt;&lt;/font&gt;" style="ellipse;whiteSpace=wrap;html=1;fillColor=#fad7ac;strokeColor=#b46504;" vertex="1" parent="5Fb5_ttYT_Sp9hCFf5mJ-177">
          <mxGeometry x="1260" y="500" width="210" height="90" as="geometry" />
        </mxCell>
        <mxCell id="5Fb5_ttYT_Sp9hCFf5mJ-29" value="&lt;font style=&quot;font-size: 18px;&quot;&gt;&lt;b&gt;View Profile&lt;/b&gt;&lt;/font&gt;" style="ellipse;whiteSpace=wrap;html=1;fillColor=#fad7ac;strokeColor=#b46504;" vertex="1" parent="5Fb5_ttYT_Sp9hCFf5mJ-177">
          <mxGeometry x="1490" y="400" width="210" height="90" as="geometry" />
        </mxCell>
        <mxCell id="5Fb5_ttYT_Sp9hCFf5mJ-30" value="&lt;font style=&quot;font-size: 14px;&quot;&gt;&lt;b&gt;Extend&lt;/b&gt;&lt;/font&gt;" style="endArrow=open;endSize=12;dashed=1;html=1;rounded=0;exitX=0.5;exitY=0;exitDx=0;exitDy=0;entryX=0.5;entryY=1;entryDx=0;entryDy=0;" edge="1" parent="5Fb5_ttYT_Sp9hCFf5mJ-177" source="5Fb5_ttYT_Sp9hCFf5mJ-28" target="5Fb5_ttYT_Sp9hCFf5mJ-27">
          <mxGeometry width="160" relative="1" as="geometry">
            <mxPoint x="1200" y="430" as="sourcePoint" />
            <mxPoint x="1360" y="430" as="targetPoint" />
          </mxGeometry>
        </mxCell>
        <mxCell id="5Fb5_ttYT_Sp9hCFf5mJ-31" value="&lt;font size=&quot;1&quot; style=&quot;&quot;&gt;&lt;b style=&quot;font-size: 14px;&quot;&gt;Extend&lt;/b&gt;&lt;/font&gt;" style="endArrow=open;endSize=12;dashed=1;html=1;rounded=0;" edge="1" parent="5Fb5_ttYT_Sp9hCFf5mJ-177" source="5Fb5_ttYT_Sp9hCFf5mJ-29" target="5Fb5_ttYT_Sp9hCFf5mJ-27">
          <mxGeometry width="160" relative="1" as="geometry">
            <mxPoint x="1375" y="510" as="sourcePoint" />
            <mxPoint x="1305" y="430" as="targetPoint" />
            <Array as="points" />
          </mxGeometry>
        </mxCell>
        <mxCell id="5Fb5_ttYT_Sp9hCFf5mJ-34" value="" style="endArrow=none;html=1;rounded=0;strokeWidth=4;fillColor=#1ba1e2;strokeColor=#006EAF;entryX=0.068;entryY=0.256;entryDx=0;entryDy=0;entryPerimeter=0;jumpStyle=arc;jumpSize=20;" edge="1" parent="5Fb5_ttYT_Sp9hCFf5mJ-177" target="5Fb5_ttYT_Sp9hCFf5mJ-27">
          <mxGeometry width="50" height="50" relative="1" as="geometry">
            <mxPoint x="740" y="350" as="sourcePoint" />
            <mxPoint x="1000" y="410" as="targetPoint" />
          </mxGeometry>
        </mxCell>
        <mxCell id="5Fb5_ttYT_Sp9hCFf5mJ-35" value="&lt;font style=&quot;font-size: 18px;&quot;&gt;&lt;b&gt;Add Customer&lt;/b&gt;&lt;/font&gt;" style="ellipse;whiteSpace=wrap;html=1;fillColor=#fad7ac;strokeColor=#b46504;" vertex="1" parent="5Fb5_ttYT_Sp9hCFf5mJ-177">
          <mxGeometry x="1200" y="790" width="220" height="90" as="geometry" />
        </mxCell>
        <mxCell id="5Fb5_ttYT_Sp9hCFf5mJ-36" value="&lt;font style=&quot;font-size: 18px;&quot;&gt;&lt;b&gt;Update Customer Details&lt;/b&gt;&lt;/font&gt;" style="ellipse;whiteSpace=wrap;html=1;fillColor=#fad7ac;strokeColor=#b46504;" vertex="1" parent="5Fb5_ttYT_Sp9hCFf5mJ-177">
          <mxGeometry x="1200" y="650" width="220" height="90" as="geometry" />
        </mxCell>
        <mxCell id="5Fb5_ttYT_Sp9hCFf5mJ-37" value="&lt;font style=&quot;font-size: 18px;&quot;&gt;&lt;b&gt;Issue Fine&lt;/b&gt;&lt;/font&gt;" style="ellipse;whiteSpace=wrap;html=1;fillColor=#fad7ac;strokeColor=#b46504;" vertex="1" parent="5Fb5_ttYT_Sp9hCFf5mJ-177">
          <mxGeometry x="1820" y="1370" width="220" height="90" as="geometry" />
        </mxCell>
        <mxCell id="5Fb5_ttYT_Sp9hCFf5mJ-38" value="&lt;font style=&quot;font-size: 18px;&quot;&gt;&lt;b&gt;Add Existing Item&lt;/b&gt;&lt;/font&gt;" style="ellipse;whiteSpace=wrap;html=1;fillColor=#fad7ac;strokeColor=#b46504;" vertex="1" parent="5Fb5_ttYT_Sp9hCFf5mJ-177">
          <mxGeometry x="2110" y="830" width="220" height="90" as="geometry" />
        </mxCell>
        <mxCell id="5Fb5_ttYT_Sp9hCFf5mJ-39" value="&lt;font style=&quot;font-size: 18px;&quot;&gt;&lt;b&gt;Calculate Bill Value&lt;/b&gt;&lt;/font&gt;" style="ellipse;whiteSpace=wrap;html=1;fillColor=#fad7ac;strokeColor=#b46504;" vertex="1" parent="5Fb5_ttYT_Sp9hCFf5mJ-177">
          <mxGeometry x="1650" y="1800" width="220" height="90" as="geometry" />
        </mxCell>
        <mxCell id="5Fb5_ttYT_Sp9hCFf5mJ-40" value="&lt;font style=&quot;font-size: 18px;&quot;&gt;&lt;b&gt;Manage Supplier Invoice&lt;/b&gt;&lt;/font&gt;" style="ellipse;whiteSpace=wrap;html=1;fillColor=#fad7ac;strokeColor=#b46504;" vertex="1" parent="5Fb5_ttYT_Sp9hCFf5mJ-177">
          <mxGeometry x="1455" y="1630" width="220" height="90" as="geometry" />
        </mxCell>
        <mxCell id="5Fb5_ttYT_Sp9hCFf5mJ-41" value="&lt;font style=&quot;font-size: 18px;&quot;&gt;&lt;b&gt;Update Supplier Details&lt;/b&gt;&lt;/font&gt;" style="ellipse;whiteSpace=wrap;html=1;fillColor=#fad7ac;strokeColor=#b46504;" vertex="1" parent="5Fb5_ttYT_Sp9hCFf5mJ-177">
          <mxGeometry x="1200" y="1400" width="220" height="90" as="geometry" />
        </mxCell>
        <mxCell id="5Fb5_ttYT_Sp9hCFf5mJ-42" value="&lt;font style=&quot;font-size: 18px;&quot;&gt;&lt;b&gt;Manage Invoice&lt;/b&gt;&lt;/font&gt;" style="ellipse;whiteSpace=wrap;html=1;fillColor=#fad7ac;strokeColor=#b46504;" vertex="1" parent="5Fb5_ttYT_Sp9hCFf5mJ-177">
          <mxGeometry x="1310" y="1820" width="220" height="90" as="geometry" />
        </mxCell>
        <mxCell id="5Fb5_ttYT_Sp9hCFf5mJ-43" value="&lt;font style=&quot;font-size: 18px;&quot;&gt;&lt;b&gt;Manage Sales Invoice&lt;/b&gt;&lt;/font&gt;" style="ellipse;whiteSpace=wrap;html=1;fillColor=#fad7ac;strokeColor=#b46504;" vertex="1" parent="5Fb5_ttYT_Sp9hCFf5mJ-177">
          <mxGeometry x="1000" y="1640" width="220" height="90" as="geometry" />
        </mxCell>
        <mxCell id="5Fb5_ttYT_Sp9hCFf5mJ-44" value="&lt;font style=&quot;font-size: 18px;&quot;&gt;&lt;b&gt;Create Accounting Report&lt;/b&gt;&lt;/font&gt;" style="ellipse;whiteSpace=wrap;html=1;fillColor=#fad7ac;strokeColor=#b46504;" vertex="1" parent="5Fb5_ttYT_Sp9hCFf5mJ-177">
          <mxGeometry x="2140" y="1490" width="220" height="90" as="geometry" />
        </mxCell>
        <mxCell id="5Fb5_ttYT_Sp9hCFf5mJ-45" value="&lt;font style=&quot;font-size: 18px;&quot;&gt;&lt;b&gt;Delete Item&lt;/b&gt;&lt;/font&gt;" style="ellipse;whiteSpace=wrap;html=1;fillColor=#fad7ac;strokeColor=#b46504;" vertex="1" parent="5Fb5_ttYT_Sp9hCFf5mJ-177">
          <mxGeometry x="2110" y="540" width="220" height="90" as="geometry" />
        </mxCell>
        <mxCell id="5Fb5_ttYT_Sp9hCFf5mJ-46" value="&lt;font style=&quot;font-size: 18px;&quot;&gt;&lt;b&gt;Manage Sale Item&lt;/b&gt;&lt;/font&gt;" style="ellipse;whiteSpace=wrap;html=1;fillColor=#fad7ac;strokeColor=#b46504;" vertex="1" parent="5Fb5_ttYT_Sp9hCFf5mJ-177">
          <mxGeometry x="2110" y="970" width="220" height="90" as="geometry" />
        </mxCell>
        <mxCell id="5Fb5_ttYT_Sp9hCFf5mJ-47" value="&lt;font style=&quot;font-size: 18px;&quot;&gt;&lt;b&gt;Manage Return Item&lt;/b&gt;&lt;/font&gt;" style="ellipse;whiteSpace=wrap;html=1;fillColor=#fad7ac;strokeColor=#b46504;" vertex="1" parent="5Fb5_ttYT_Sp9hCFf5mJ-177">
          <mxGeometry x="2120" y="1250" width="220" height="90" as="geometry" />
        </mxCell>
        <mxCell id="5Fb5_ttYT_Sp9hCFf5mJ-48" value="&lt;font style=&quot;font-size: 18px;&quot;&gt;&lt;b&gt;Issue Item&lt;/b&gt;&lt;/font&gt;" style="ellipse;whiteSpace=wrap;html=1;fillColor=#fad7ac;strokeColor=#b46504;" vertex="1" parent="5Fb5_ttYT_Sp9hCFf5mJ-177">
          <mxGeometry x="2113" y="680" width="220" height="90" as="geometry" />
        </mxCell>
        <mxCell id="5Fb5_ttYT_Sp9hCFf5mJ-49" value="&lt;font style=&quot;font-size: 18px;&quot;&gt;&lt;b&gt;Manage Supplied Item&lt;/b&gt;&lt;/font&gt;" style="ellipse;whiteSpace=wrap;html=1;fillColor=#fad7ac;strokeColor=#b46504;" vertex="1" parent="5Fb5_ttYT_Sp9hCFf5mJ-177">
          <mxGeometry x="2120" y="1100" width="220" height="90" as="geometry" />
        </mxCell>
        <mxCell id="5Fb5_ttYT_Sp9hCFf5mJ-50" value="&lt;font style=&quot;font-size: 18px;&quot;&gt;&lt;b&gt;Add Item&lt;/b&gt;&lt;/font&gt;" style="ellipse;whiteSpace=wrap;html=1;fillColor=#fad7ac;strokeColor=#b46504;" vertex="1" parent="5Fb5_ttYT_Sp9hCFf5mJ-177">
          <mxGeometry x="2110" y="400" width="220" height="90" as="geometry" />
        </mxCell>
        <mxCell id="5Fb5_ttYT_Sp9hCFf5mJ-51" value="&lt;font style=&quot;font-size: 18px;&quot;&gt;&lt;b&gt;Delete Supplier&lt;/b&gt;&lt;/font&gt;" style="ellipse;whiteSpace=wrap;html=1;fillColor=#fad7ac;strokeColor=#b46504;" vertex="1" parent="5Fb5_ttYT_Sp9hCFf5mJ-177">
          <mxGeometry x="1200" y="1250" width="220" height="90" as="geometry" />
        </mxCell>
        <mxCell id="5Fb5_ttYT_Sp9hCFf5mJ-53" value="&lt;font style=&quot;font-size: 18px;&quot;&gt;&lt;b&gt;Delete Customer&lt;/b&gt;&lt;/font&gt;" style="ellipse;whiteSpace=wrap;html=1;fillColor=#fad7ac;strokeColor=#b46504;" vertex="1" parent="5Fb5_ttYT_Sp9hCFf5mJ-177">
          <mxGeometry x="1200" y="950" width="220" height="90" as="geometry" />
        </mxCell>
        <mxCell id="5Fb5_ttYT_Sp9hCFf5mJ-54" value="&lt;font style=&quot;font-size: 18px;&quot;&gt;&lt;b&gt;View Customer&lt;/b&gt;&lt;/font&gt;" style="ellipse;whiteSpace=wrap;html=1;fillColor=#fad7ac;strokeColor=#b46504;" vertex="1" parent="5Fb5_ttYT_Sp9hCFf5mJ-177">
          <mxGeometry x="1570" y="790" width="220" height="90" as="geometry" />
        </mxCell>
        <mxCell id="5Fb5_ttYT_Sp9hCFf5mJ-55" value="&lt;font style=&quot;font-size: 18px;&quot;&gt;&lt;b&gt;Viwe Supplier&lt;/b&gt;&lt;/font&gt;" style="ellipse;whiteSpace=wrap;html=1;fillColor=#fad7ac;strokeColor=#b46504;" vertex="1" parent="5Fb5_ttYT_Sp9hCFf5mJ-177">
          <mxGeometry x="1515" y="1250" width="220" height="90" as="geometry" />
        </mxCell>
        <mxCell id="5Fb5_ttYT_Sp9hCFf5mJ-56" value="&lt;font style=&quot;font-size: 18px;&quot;&gt;&lt;b&gt;Add Supplier&lt;/b&gt;&lt;/font&gt;" style="ellipse;whiteSpace=wrap;html=1;fillColor=#fad7ac;strokeColor=#b46504;" vertex="1" parent="5Fb5_ttYT_Sp9hCFf5mJ-177">
          <mxGeometry x="1200" y="1100" width="220" height="90" as="geometry" />
        </mxCell>
        <mxCell id="5Fb5_ttYT_Sp9hCFf5mJ-62" value="&lt;b style=&quot;border-color: var(--border-color); font-size: 14px;&quot;&gt;Include&lt;/b&gt;" style="endArrow=open;endSize=12;dashed=1;html=1;rounded=0;entryX=0;entryY=1;entryDx=0;entryDy=0;" edge="1" parent="5Fb5_ttYT_Sp9hCFf5mJ-177" source="5Fb5_ttYT_Sp9hCFf5mJ-53" target="5Fb5_ttYT_Sp9hCFf5mJ-54">
          <mxGeometry width="160" relative="1" as="geometry">
            <mxPoint x="1512" y="434" as="sourcePoint" />
            <mxPoint x="1396" y="407" as="targetPoint" />
            <Array as="points" />
          </mxGeometry>
        </mxCell>
        <mxCell id="5Fb5_ttYT_Sp9hCFf5mJ-63" value="&lt;b style=&quot;border-color: var(--border-color); font-size: 14px;&quot;&gt;Include&lt;/b&gt;" style="endArrow=open;endSize=12;dashed=1;html=1;rounded=0;entryX=0;entryY=0.5;entryDx=0;entryDy=0;exitX=1;exitY=0.667;exitDx=0;exitDy=0;exitPerimeter=0;" edge="1" parent="5Fb5_ttYT_Sp9hCFf5mJ-177" source="5Fb5_ttYT_Sp9hCFf5mJ-35" target="5Fb5_ttYT_Sp9hCFf5mJ-54">
          <mxGeometry width="160" relative="1" as="geometry">
            <mxPoint x="1522" y="444" as="sourcePoint" />
            <mxPoint x="1406" y="417" as="targetPoint" />
            <Array as="points" />
          </mxGeometry>
        </mxCell>
        <mxCell id="5Fb5_ttYT_Sp9hCFf5mJ-64" value="&lt;font size=&quot;1&quot; style=&quot;&quot;&gt;&lt;b style=&quot;font-size: 14px;&quot;&gt;Include&lt;/b&gt;&lt;/font&gt;" style="endArrow=open;endSize=12;dashed=1;html=1;rounded=0;exitX=0.95;exitY=0.7;exitDx=0;exitDy=0;exitPerimeter=0;" edge="1" parent="5Fb5_ttYT_Sp9hCFf5mJ-177" source="5Fb5_ttYT_Sp9hCFf5mJ-36" target="5Fb5_ttYT_Sp9hCFf5mJ-54">
          <mxGeometry width="160" relative="1" as="geometry">
            <mxPoint x="1640" y="677" as="sourcePoint" />
            <mxPoint x="1524" y="650" as="targetPoint" />
            <Array as="points" />
          </mxGeometry>
        </mxCell>
        <mxCell id="5Fb5_ttYT_Sp9hCFf5mJ-65" value="&lt;b style=&quot;border-color: var(--border-color); font-size: 14px;&quot;&gt;Include&lt;/b&gt;" style="endArrow=open;endSize=12;dashed=1;html=1;rounded=0;entryX=0;entryY=0.5;entryDx=0;entryDy=0;exitX=1;exitY=0.667;exitDx=0;exitDy=0;exitPerimeter=0;" edge="1" parent="5Fb5_ttYT_Sp9hCFf5mJ-177" target="5Fb5_ttYT_Sp9hCFf5mJ-55">
          <mxGeometry width="160" relative="1" as="geometry">
            <mxPoint x="1420" y="1302.5" as="sourcePoint" />
            <mxPoint x="1570" y="1287.5" as="targetPoint" />
            <Array as="points" />
          </mxGeometry>
        </mxCell>
        <mxCell id="5Fb5_ttYT_Sp9hCFf5mJ-66" value="&lt;b style=&quot;border-color: var(--border-color); font-size: 14px;&quot;&gt;Include&lt;/b&gt;" style="endArrow=open;endSize=12;dashed=1;html=1;rounded=0;exitX=1;exitY=0.667;exitDx=0;exitDy=0;exitPerimeter=0;" edge="1" parent="5Fb5_ttYT_Sp9hCFf5mJ-177" target="5Fb5_ttYT_Sp9hCFf5mJ-55">
          <mxGeometry width="160" relative="1" as="geometry">
            <mxPoint x="1420" y="1152.5" as="sourcePoint" />
            <mxPoint x="1570" y="1137.5" as="targetPoint" />
            <Array as="points" />
          </mxGeometry>
        </mxCell>
        <mxCell id="5Fb5_ttYT_Sp9hCFf5mJ-68" value="&lt;b style=&quot;border-color: var(--border-color); font-size: 14px;&quot;&gt;Include&lt;/b&gt;" style="endArrow=open;endSize=12;dashed=1;html=1;rounded=0;exitX=1;exitY=0.5;exitDx=0;exitDy=0;entryX=0.273;entryY=0.944;entryDx=0;entryDy=0;entryPerimeter=0;" edge="1" parent="5Fb5_ttYT_Sp9hCFf5mJ-177" source="5Fb5_ttYT_Sp9hCFf5mJ-41" target="5Fb5_ttYT_Sp9hCFf5mJ-55">
          <mxGeometry width="160" relative="1" as="geometry">
            <mxPoint x="1460" y="1376.5" as="sourcePoint" />
            <mxPoint x="1609" y="1480" as="targetPoint" />
            <Array as="points" />
          </mxGeometry>
        </mxCell>
        <mxCell id="5Fb5_ttYT_Sp9hCFf5mJ-69" value="&lt;font style=&quot;font-size: 18px;&quot;&gt;&lt;b&gt;Calculate Discount Value&lt;/b&gt;&lt;/font&gt;" style="ellipse;whiteSpace=wrap;html=1;fillColor=#fad7ac;strokeColor=#b46504;" vertex="1" parent="5Fb5_ttYT_Sp9hCFf5mJ-177">
          <mxGeometry x="1620" y="1930" width="220" height="90" as="geometry" />
        </mxCell>
        <mxCell id="5Fb5_ttYT_Sp9hCFf5mJ-72" value="&lt;b style=&quot;border-color: var(--border-color); font-size: 14px;&quot;&gt;Include&lt;/b&gt;" style="endArrow=open;endSize=12;dashed=1;html=1;rounded=0;exitX=0.045;exitY=0.767;exitDx=0;exitDy=0;exitPerimeter=0;" edge="1" parent="5Fb5_ttYT_Sp9hCFf5mJ-177" source="5Fb5_ttYT_Sp9hCFf5mJ-40" target="5Fb5_ttYT_Sp9hCFf5mJ-42">
          <mxGeometry width="160" relative="1" as="geometry">
            <mxPoint x="1475" y="1457.5" as="sourcePoint" />
            <mxPoint x="1570" y="1450" as="targetPoint" />
            <Array as="points" />
          </mxGeometry>
        </mxCell>
        <mxCell id="5Fb5_ttYT_Sp9hCFf5mJ-87" value="" style="endArrow=none;html=1;rounded=0;strokeWidth=4;fillColor=#008a00;strokeColor=#005700;exitX=0.2;exitY=0.25;exitDx=0;exitDy=0;exitPerimeter=0;shadow=0;entryX=0;entryY=0.5;entryDx=0;entryDy=0;jumpStyle=arc;jumpSize=20;" edge="1" parent="5Fb5_ttYT_Sp9hCFf5mJ-177" source="5Fb5_ttYT_Sp9hCFf5mJ-4" target="5Fb5_ttYT_Sp9hCFf5mJ-43">
          <mxGeometry width="50" height="50" relative="1" as="geometry">
            <mxPoint x="380" y="1685" as="sourcePoint" />
            <mxPoint x="970" y="1685" as="targetPoint" />
            <Array as="points">
              <mxPoint x="480" y="1685" />
            </Array>
          </mxGeometry>
        </mxCell>
        <mxCell id="5Fb5_ttYT_Sp9hCFf5mJ-73" value="&lt;b style=&quot;border-color: var(--border-color); font-size: 14px;&quot;&gt;Include&lt;/b&gt;" style="endArrow=open;endSize=12;dashed=1;html=1;rounded=0;exitX=1;exitY=1;exitDx=0;exitDy=0;" edge="1" parent="5Fb5_ttYT_Sp9hCFf5mJ-177" source="5Fb5_ttYT_Sp9hCFf5mJ-43" target="5Fb5_ttYT_Sp9hCFf5mJ-42">
          <mxGeometry width="160" relative="1" as="geometry">
            <mxPoint x="1280" y="1730" as="sourcePoint" />
            <mxPoint x="1375" y="1722.5" as="targetPoint" />
            <Array as="points" />
          </mxGeometry>
        </mxCell>
        <mxCell id="5Fb5_ttYT_Sp9hCFf5mJ-74" value="&lt;font size=&quot;1&quot; style=&quot;&quot;&gt;&lt;b style=&quot;font-size: 14px;&quot;&gt;Extend&lt;/b&gt;&lt;/font&gt;" style="endArrow=open;endSize=12;dashed=1;html=1;rounded=0;" edge="1" parent="5Fb5_ttYT_Sp9hCFf5mJ-177" source="5Fb5_ttYT_Sp9hCFf5mJ-69">
          <mxGeometry width="160" relative="1" as="geometry">
            <mxPoint x="1606" y="1927" as="sourcePoint" />
            <mxPoint x="1490" y="1900" as="targetPoint" />
            <Array as="points" />
          </mxGeometry>
        </mxCell>
        <mxCell id="5Fb5_ttYT_Sp9hCFf5mJ-75" value="&lt;font size=&quot;1&quot; style=&quot;&quot;&gt;&lt;b style=&quot;font-size: 14px;&quot;&gt;Extend&lt;/b&gt;&lt;/font&gt;" style="endArrow=open;endSize=12;dashed=1;html=1;rounded=0;exitX=0;exitY=0.5;exitDx=0;exitDy=0;" edge="1" parent="5Fb5_ttYT_Sp9hCFf5mJ-177" source="5Fb5_ttYT_Sp9hCFf5mJ-39">
          <mxGeometry width="160" relative="1" as="geometry">
            <mxPoint x="1683" y="1910" as="sourcePoint" />
            <mxPoint x="1530" y="1862" as="targetPoint" />
            <Array as="points" />
          </mxGeometry>
        </mxCell>
        <mxCell id="5Fb5_ttYT_Sp9hCFf5mJ-86" value="" style="endArrow=none;html=1;rounded=0;strokeWidth=4;fillColor=#008a00;strokeColor=#005700;exitX=0.75;exitY=0.1;exitDx=0;exitDy=0;exitPerimeter=0;jumpStyle=arc;jumpSize=20;" edge="1" parent="5Fb5_ttYT_Sp9hCFf5mJ-177" source="5Fb5_ttYT_Sp9hCFf5mJ-4">
          <mxGeometry width="50" height="50" relative="1" as="geometry">
            <mxPoint x="340" y="1540" as="sourcePoint" />
            <mxPoint x="1551" y="1630" as="targetPoint" />
            <Array as="points">
              <mxPoint x="518" y="1580" />
              <mxPoint x="1551" y="1580" />
            </Array>
          </mxGeometry>
        </mxCell>
        <mxCell id="5Fb5_ttYT_Sp9hCFf5mJ-89" value="" style="endArrow=none;html=1;rounded=0;strokeWidth=4;fillColor=#008a00;strokeColor=#005700;jumpStyle=arc;jumpSize=20;" edge="1" parent="5Fb5_ttYT_Sp9hCFf5mJ-177">
          <mxGeometry width="50" height="50" relative="1" as="geometry">
            <mxPoint x="490" y="700" as="sourcePoint" />
            <mxPoint x="1200" y="1290" as="targetPoint" />
            <Array as="points">
              <mxPoint x="130" y="700" />
              <mxPoint x="130" y="1290" />
            </Array>
          </mxGeometry>
        </mxCell>
        <mxCell id="5Fb5_ttYT_Sp9hCFf5mJ-90" value="" style="endArrow=none;html=1;rounded=0;strokeWidth=4;fillColor=#008a00;strokeColor=#005700;jumpStyle=arc;jumpSize=20;" edge="1" parent="5Fb5_ttYT_Sp9hCFf5mJ-177" source="5Fb5_ttYT_Sp9hCFf5mJ-4">
          <mxGeometry width="50" height="50" relative="1" as="geometry">
            <mxPoint x="770" y="1135" as="sourcePoint" />
            <mxPoint x="1211" y="1155" as="targetPoint" />
            <Array as="points">
              <mxPoint x="505" y="1160" />
            </Array>
          </mxGeometry>
        </mxCell>
        <mxCell id="5Fb5_ttYT_Sp9hCFf5mJ-91" value="" style="endArrow=none;html=1;rounded=0;strokeWidth=4;fillColor=#008a00;strokeColor=#005700;exitX=1;exitY=1;exitDx=0;exitDy=0;exitPerimeter=0;jumpStyle=arc;jumpSize=20;" edge="1" parent="5Fb5_ttYT_Sp9hCFf5mJ-177" source="5Fb5_ttYT_Sp9hCFf5mJ-4">
          <mxGeometry width="50" height="50" relative="1" as="geometry">
            <mxPoint x="759" y="980" as="sourcePoint" />
            <mxPoint x="1200" y="1000" as="targetPoint" />
            <Array as="points">
              <mxPoint x="530" y="1020" />
              <mxPoint x="790" y="1020" />
              <mxPoint x="1050" y="1020" />
              <mxPoint x="1200" y="1020" />
            </Array>
          </mxGeometry>
        </mxCell>
        <mxCell id="5Fb5_ttYT_Sp9hCFf5mJ-92" value="" style="endArrow=none;html=1;rounded=0;strokeWidth=4;fillColor=#008a00;strokeColor=#005700;exitX=0;exitY=1;exitDx=0;exitDy=0;exitPerimeter=0;jumpStyle=arc;jumpSize=20;" edge="1" parent="5Fb5_ttYT_Sp9hCFf5mJ-177" source="5Fb5_ttYT_Sp9hCFf5mJ-4">
          <mxGeometry width="50" height="50" relative="1" as="geometry">
            <mxPoint x="770" y="840" as="sourcePoint" />
            <mxPoint x="1211" y="860" as="targetPoint" />
            <Array as="points">
              <mxPoint x="480" y="940" />
              <mxPoint x="830" y="940" />
              <mxPoint x="830" y="860" />
            </Array>
          </mxGeometry>
        </mxCell>
        <mxCell id="5Fb5_ttYT_Sp9hCFf5mJ-93" value="" style="endArrow=none;html=1;rounded=0;strokeWidth=4;fillColor=#008a00;strokeColor=#005700;jumpStyle=arc;jumpSize=20;" edge="1" parent="5Fb5_ttYT_Sp9hCFf5mJ-177">
          <mxGeometry width="50" height="50" relative="1" as="geometry">
            <mxPoint x="480" y="670" as="sourcePoint" />
            <mxPoint x="1200" y="700" as="targetPoint" />
            <Array as="points">
              <mxPoint x="50" y="670" />
              <mxPoint x="50" y="780" />
              <mxPoint x="1150" y="780" />
              <mxPoint x="1150" y="700" />
            </Array>
          </mxGeometry>
        </mxCell>
        <mxCell id="5Fb5_ttYT_Sp9hCFf5mJ-94" value="&lt;font style=&quot;font-size: 18px;&quot;&gt;&lt;b&gt;Manage Item&lt;/b&gt;&lt;/font&gt;" style="ellipse;whiteSpace=wrap;html=1;fillColor=#fad7ac;strokeColor=#b46504;" vertex="1" parent="5Fb5_ttYT_Sp9hCFf5mJ-177">
          <mxGeometry x="1780" y="1100" width="220" height="90" as="geometry" />
        </mxCell>
        <mxCell id="5Fb5_ttYT_Sp9hCFf5mJ-95" value="&lt;font style=&quot;font-size: 18px;&quot;&gt;&lt;b&gt;Viwe Item&lt;/b&gt;&lt;/font&gt;" style="ellipse;whiteSpace=wrap;html=1;fillColor=#fad7ac;strokeColor=#b46504;" vertex="1" parent="5Fb5_ttYT_Sp9hCFf5mJ-177">
          <mxGeometry x="1790" y="540" width="220" height="90" as="geometry" />
        </mxCell>
        <mxCell id="5Fb5_ttYT_Sp9hCFf5mJ-96" value="&lt;font size=&quot;1&quot; style=&quot;&quot;&gt;&lt;b style=&quot;font-size: 14px;&quot;&gt;Include&lt;/b&gt;&lt;/font&gt;" style="endArrow=open;endSize=12;dashed=1;html=1;rounded=0;exitX=0;exitY=0;exitDx=0;exitDy=0;entryX=1;entryY=1;entryDx=0;entryDy=0;" edge="1" parent="5Fb5_ttYT_Sp9hCFf5mJ-177" source="5Fb5_ttYT_Sp9hCFf5mJ-48" target="5Fb5_ttYT_Sp9hCFf5mJ-95">
          <mxGeometry width="160" relative="1" as="geometry">
            <mxPoint x="1680" y="630" as="sourcePoint" />
            <mxPoint x="1877" y="719" as="targetPoint" />
            <Array as="points" />
          </mxGeometry>
        </mxCell>
        <mxCell id="5Fb5_ttYT_Sp9hCFf5mJ-97" value="&lt;font size=&quot;1&quot; style=&quot;&quot;&gt;&lt;b style=&quot;font-size: 14px;&quot;&gt;Include&lt;/b&gt;&lt;/font&gt;" style="endArrow=open;endSize=12;dashed=1;html=1;rounded=0;entryX=1;entryY=0.5;entryDx=0;entryDy=0;" edge="1" parent="5Fb5_ttYT_Sp9hCFf5mJ-177" source="5Fb5_ttYT_Sp9hCFf5mJ-45" target="5Fb5_ttYT_Sp9hCFf5mJ-95">
          <mxGeometry width="160" relative="1" as="geometry">
            <mxPoint x="1690" y="640" as="sourcePoint" />
            <mxPoint x="1887" y="729" as="targetPoint" />
            <Array as="points" />
          </mxGeometry>
        </mxCell>
        <mxCell id="5Fb5_ttYT_Sp9hCFf5mJ-98" value="&lt;font size=&quot;1&quot; style=&quot;&quot;&gt;&lt;b style=&quot;font-size: 14px;&quot;&gt;Include&lt;/b&gt;&lt;/font&gt;" style="endArrow=open;endSize=12;dashed=1;html=1;rounded=0;exitX=0.005;exitY=0.678;exitDx=0;exitDy=0;exitPerimeter=0;" edge="1" parent="5Fb5_ttYT_Sp9hCFf5mJ-177" source="5Fb5_ttYT_Sp9hCFf5mJ-50">
          <mxGeometry width="160" relative="1" as="geometry">
            <mxPoint x="1746.5" y="451" as="sourcePoint" />
            <mxPoint x="1943.5" y="540" as="targetPoint" />
            <Array as="points" />
          </mxGeometry>
        </mxCell>
        <mxCell id="5Fb5_ttYT_Sp9hCFf5mJ-99" value="&lt;font size=&quot;1&quot; style=&quot;&quot;&gt;&lt;b style=&quot;font-size: 14px;&quot;&gt;Include&lt;/b&gt;&lt;/font&gt;" style="endArrow=open;endSize=12;dashed=1;html=1;rounded=0;exitX=0;exitY=0;exitDx=0;exitDy=0;entryX=0.568;entryY=1.011;entryDx=0;entryDy=0;entryPerimeter=0;" edge="1" parent="5Fb5_ttYT_Sp9hCFf5mJ-177" target="5Fb5_ttYT_Sp9hCFf5mJ-95">
          <mxGeometry width="160" relative="1" as="geometry">
            <mxPoint x="2149" y="845" as="sourcePoint" />
            <mxPoint x="1988" y="770" as="targetPoint" />
            <Array as="points" />
          </mxGeometry>
        </mxCell>
        <mxCell id="5Fb5_ttYT_Sp9hCFf5mJ-100" value="&lt;font size=&quot;1&quot; style=&quot;&quot;&gt;&lt;b style=&quot;font-size: 14px;&quot;&gt;Include&lt;/b&gt;&lt;/font&gt;" style="endArrow=open;endSize=12;dashed=1;html=1;rounded=0;" edge="1" parent="5Fb5_ttYT_Sp9hCFf5mJ-177" source="5Fb5_ttYT_Sp9hCFf5mJ-49" target="5Fb5_ttYT_Sp9hCFf5mJ-94">
          <mxGeometry width="160" relative="1" as="geometry">
            <mxPoint x="2074" y="1102" as="sourcePoint" />
            <mxPoint x="1840" y="888" as="targetPoint" />
            <Array as="points" />
          </mxGeometry>
        </mxCell>
        <mxCell id="5Fb5_ttYT_Sp9hCFf5mJ-101" value="&lt;font size=&quot;1&quot; style=&quot;&quot;&gt;&lt;b style=&quot;font-size: 14px;&quot;&gt;Include&lt;/b&gt;&lt;/font&gt;" style="endArrow=open;endSize=12;dashed=1;html=1;rounded=0;exitX=0;exitY=0.5;exitDx=0;exitDy=0;entryX=0.568;entryY=1.011;entryDx=0;entryDy=0;entryPerimeter=0;" edge="1" parent="5Fb5_ttYT_Sp9hCFf5mJ-177" source="5Fb5_ttYT_Sp9hCFf5mJ-47">
          <mxGeometry width="160" relative="1" as="geometry">
            <mxPoint x="2189" y="1394" as="sourcePoint" />
            <mxPoint x="1955" y="1180" as="targetPoint" />
            <Array as="points" />
          </mxGeometry>
        </mxCell>
        <mxCell id="5Fb5_ttYT_Sp9hCFf5mJ-103" value="&lt;font size=&quot;1&quot; style=&quot;&quot;&gt;&lt;b style=&quot;font-size: 14px;&quot;&gt;Include&lt;/b&gt;&lt;/font&gt;" style="endArrow=open;endSize=12;dashed=1;html=1;rounded=0;exitX=0;exitY=1;exitDx=0;exitDy=0;" edge="1" parent="5Fb5_ttYT_Sp9hCFf5mJ-177" source="5Fb5_ttYT_Sp9hCFf5mJ-46">
          <mxGeometry width="160" relative="1" as="geometry">
            <mxPoint x="2070" y="1110" as="sourcePoint" />
            <mxPoint x="1950" y="1110" as="targetPoint" />
            <Array as="points" />
          </mxGeometry>
        </mxCell>
        <mxCell id="5Fb5_ttYT_Sp9hCFf5mJ-104" value="&lt;font size=&quot;1&quot; style=&quot;&quot;&gt;&lt;b style=&quot;font-size: 14px;&quot;&gt;Extend&lt;/b&gt;&lt;/font&gt;" style="endArrow=open;endSize=12;dashed=1;html=1;rounded=0;entryX=0;entryY=1;entryDx=0;entryDy=0;" edge="1" parent="5Fb5_ttYT_Sp9hCFf5mJ-177" source="5Fb5_ttYT_Sp9hCFf5mJ-37" target="5Fb5_ttYT_Sp9hCFf5mJ-47">
          <mxGeometry width="160" relative="1" as="geometry">
            <mxPoint x="2106" y="1370" as="sourcePoint" />
            <mxPoint x="1990" y="1343" as="targetPoint" />
            <Array as="points" />
          </mxGeometry>
        </mxCell>
        <mxCell id="5Fb5_ttYT_Sp9hCFf5mJ-105" value="" style="endArrow=none;html=1;rounded=0;strokeWidth=4;fillColor=#d80073;strokeColor=#A50040;entryX=1;entryY=0.3333333333333333;entryDx=0;entryDy=0;entryPerimeter=0;jumpStyle=arc;jumpSize=20;" edge="1" parent="5Fb5_ttYT_Sp9hCFf5mJ-177" target="5Fb5_ttYT_Sp9hCFf5mJ-5">
          <mxGeometry width="50" height="50" relative="1" as="geometry">
            <mxPoint x="2333" y="450" as="sourcePoint" />
            <mxPoint x="620" y="670" as="targetPoint" />
            <Array as="points">
              <mxPoint x="2820" y="450" />
              <mxPoint x="2820" y="180" />
              <mxPoint x="650" y="180" />
            </Array>
          </mxGeometry>
        </mxCell>
        <mxCell id="5Fb5_ttYT_Sp9hCFf5mJ-106" value="" style="endArrow=none;html=1;rounded=0;strokeWidth=4;fillColor=#d80073;strokeColor=#A50040;jumpStyle=arc;jumpSize=20;" edge="1" parent="5Fb5_ttYT_Sp9hCFf5mJ-177">
          <mxGeometry width="50" height="50" relative="1" as="geometry">
            <mxPoint x="2330" y="580" as="sourcePoint" />
            <mxPoint x="620" y="670" as="targetPoint" />
            <Array as="points">
              <mxPoint x="2850" y="580" />
              <mxPoint x="2850" y="120" />
              <mxPoint x="620" y="120" />
            </Array>
          </mxGeometry>
        </mxCell>
        <mxCell id="5Fb5_ttYT_Sp9hCFf5mJ-107" value="" style="endArrow=none;html=1;rounded=0;strokeWidth=4;fillColor=#d80073;strokeColor=#A50040;entryX=0.5;entryY=0.5;entryDx=0;entryDy=0;entryPerimeter=0;jumpStyle=arc;jumpSize=20;" edge="1" parent="5Fb5_ttYT_Sp9hCFf5mJ-177" target="5Fb5_ttYT_Sp9hCFf5mJ-5">
          <mxGeometry width="50" height="50" relative="1" as="geometry">
            <mxPoint x="2333" y="720" as="sourcePoint" />
            <mxPoint x="630" y="660" as="targetPoint" />
            <Array as="points">
              <mxPoint x="2860" y="720" />
              <mxPoint x="2850" y="2810" />
              <mxPoint x="625" y="2820" />
            </Array>
          </mxGeometry>
        </mxCell>
        <mxCell id="5Fb5_ttYT_Sp9hCFf5mJ-108" value="" style="endArrow=none;html=1;rounded=0;strokeWidth=4;fillColor=#d80073;strokeColor=#A50040;entryX=1;entryY=0.3333333333333333;entryDx=0;entryDy=0;entryPerimeter=0;jumpStyle=arc;jumpSize=20;" edge="1" parent="5Fb5_ttYT_Sp9hCFf5mJ-177" target="5Fb5_ttYT_Sp9hCFf5mJ-5">
          <mxGeometry width="50" height="50" relative="1" as="geometry">
            <mxPoint x="2333" y="870" as="sourcePoint" />
            <mxPoint x="660" y="660" as="targetPoint" />
            <Array as="points">
              <mxPoint x="2820" y="870" />
              <mxPoint x="2820" y="2980" />
              <mxPoint x="650" y="2980" />
            </Array>
          </mxGeometry>
        </mxCell>
        <mxCell id="5Fb5_ttYT_Sp9hCFf5mJ-109" value="" style="endArrow=none;html=1;rounded=0;strokeWidth=4;fillColor=#d80073;strokeColor=#A50040;entryX=0.75;entryY=0.1;entryDx=0;entryDy=0;entryPerimeter=0;jumpStyle=arc;jumpSize=20;" edge="1" parent="5Fb5_ttYT_Sp9hCFf5mJ-177" target="5Fb5_ttYT_Sp9hCFf5mJ-5">
          <mxGeometry width="50" height="50" relative="1" as="geometry">
            <mxPoint x="2330" y="1020" as="sourcePoint" />
            <mxPoint x="2771" y="1020" as="targetPoint" />
            <Array as="points">
              <mxPoint x="2580" y="1020" />
              <mxPoint x="2600" y="2950" />
              <mxPoint x="638" y="2940" />
            </Array>
          </mxGeometry>
        </mxCell>
        <mxCell id="5Fb5_ttYT_Sp9hCFf5mJ-110" value="" style="endArrow=none;html=1;rounded=0;strokeWidth=4;fillColor=#d80073;strokeColor=#A50040;entryX=0;entryY=1;entryDx=0;entryDy=0;entryPerimeter=0;jumpStyle=arc;jumpSize=20;" edge="1" parent="5Fb5_ttYT_Sp9hCFf5mJ-177" target="5Fb5_ttYT_Sp9hCFf5mJ-5">
          <mxGeometry width="50" height="50" relative="1" as="geometry">
            <mxPoint x="2340" y="1140" as="sourcePoint" />
            <mxPoint x="2790" y="1140" as="targetPoint" />
            <Array as="points">
              <mxPoint x="2740" y="1140" />
              <mxPoint x="2740" y="2860" />
              <mxPoint x="600" y="2860" />
            </Array>
          </mxGeometry>
        </mxCell>
        <mxCell id="5Fb5_ttYT_Sp9hCFf5mJ-111" value="" style="endArrow=none;html=1;rounded=0;strokeWidth=4;fillColor=#d80073;strokeColor=#A50040;entryX=0.25;entryY=0.1;entryDx=0;entryDy=0;entryPerimeter=0;jumpStyle=arc;jumpSize=20;" edge="1" parent="5Fb5_ttYT_Sp9hCFf5mJ-177" target="5Fb5_ttYT_Sp9hCFf5mJ-5">
          <mxGeometry width="50" height="50" relative="1" as="geometry">
            <mxPoint x="2340" y="1300" as="sourcePoint" />
            <mxPoint x="2781" y="1300" as="targetPoint" />
            <Array as="points">
              <mxPoint x="2670" y="1300" />
              <mxPoint x="2670" y="2900" />
              <mxPoint x="610" y="2900" />
            </Array>
          </mxGeometry>
        </mxCell>
        <mxCell id="5Fb5_ttYT_Sp9hCFf5mJ-88" value="" style="endArrow=none;html=1;rounded=0;strokeWidth=4;fillColor=#008a00;strokeColor=#005700;exitX=0.25;exitY=0.1;exitDx=0;exitDy=0;exitPerimeter=0;jumpStyle=arc;jumpSize=20;" edge="1" parent="5Fb5_ttYT_Sp9hCFf5mJ-177" source="5Fb5_ttYT_Sp9hCFf5mJ-4">
          <mxGeometry width="50" height="50" relative="1" as="geometry">
            <mxPoint x="759" y="1435" as="sourcePoint" />
            <mxPoint x="1200" y="1455" as="targetPoint" />
            <Array as="points">
              <mxPoint y="638" />
              <mxPoint y="1450" />
            </Array>
          </mxGeometry>
        </mxCell>
        <mxCell id="5Fb5_ttYT_Sp9hCFf5mJ-118" value="" style="shape=umlActor;verticalLabelPosition=bottom;verticalAlign=top;html=1;outlineConnect=0;fillColor=#e3c800;fontColor=#000000;strokeColor=#B09500;strokeWidth=6;" vertex="1" parent="5Fb5_ttYT_Sp9hCFf5mJ-177">
          <mxGeometry x="100" y="210" width="30" height="60" as="geometry" />
        </mxCell>
        <mxCell id="5Fb5_ttYT_Sp9hCFf5mJ-119" value="" style="shape=umlActor;verticalLabelPosition=bottom;verticalAlign=top;html=1;outlineConnect=0;strokeWidth=6;" vertex="1" parent="5Fb5_ttYT_Sp9hCFf5mJ-177">
          <mxGeometry x="100" y="280" width="30" height="60" as="geometry" />
        </mxCell>
        <mxCell id="5Fb5_ttYT_Sp9hCFf5mJ-122" value="" style="shape=umlActor;verticalLabelPosition=bottom;verticalAlign=top;html=1;outlineConnect=0;fillColor=#d80073;fontColor=#ffffff;strokeColor=#A50040;strokeWidth=6;" vertex="1" parent="5Fb5_ttYT_Sp9hCFf5mJ-177">
          <mxGeometry x="100" y="70" width="30" height="60" as="geometry" />
        </mxCell>
        <mxCell id="5Fb5_ttYT_Sp9hCFf5mJ-123" value="" style="shape=umlActor;verticalLabelPosition=bottom;verticalAlign=top;html=1;outlineConnect=0;fillColor=#fa6800;fontColor=#000000;strokeColor=#C73500;strokeWidth=6;" vertex="1" parent="5Fb5_ttYT_Sp9hCFf5mJ-177">
          <mxGeometry x="100" y="140" width="30" height="60" as="geometry" />
        </mxCell>
        <mxCell id="5Fb5_ttYT_Sp9hCFf5mJ-125" value="" style="shape=umlActor;verticalLabelPosition=bottom;verticalAlign=top;html=1;outlineConnect=0;fillColor=#008a00;fontColor=#ffffff;strokeColor=#005700;strokeWidth=6;" vertex="1" parent="5Fb5_ttYT_Sp9hCFf5mJ-177">
          <mxGeometry x="100" width="30" height="60" as="geometry" />
        </mxCell>
        <mxCell id="5Fb5_ttYT_Sp9hCFf5mJ-127" value="&lt;font style=&quot;font-size: 18px;&quot;&gt;&lt;b&gt;=&amp;nbsp;Stork Portfolio Manager&lt;/b&gt;&lt;/font&gt;" style="text;html=1;strokeColor=none;fillColor=none;align=left;verticalAlign=middle;whiteSpace=wrap;rounded=0;" vertex="1" parent="5Fb5_ttYT_Sp9hCFf5mJ-177">
          <mxGeometry x="140" y="7.5" width="270" height="45" as="geometry" />
        </mxCell>
        <mxCell id="5Fb5_ttYT_Sp9hCFf5mJ-129" value="&lt;font style=&quot;font-size: 18px;&quot;&gt;&lt;b&gt;=&amp;nbsp;Accountant&lt;/b&gt;&lt;/font&gt;" style="text;html=1;strokeColor=none;fillColor=none;align=left;verticalAlign=middle;whiteSpace=wrap;rounded=0;" vertex="1" parent="5Fb5_ttYT_Sp9hCFf5mJ-177">
          <mxGeometry x="140" y="140" width="270" height="45" as="geometry" />
        </mxCell>
        <mxCell id="5Fb5_ttYT_Sp9hCFf5mJ-130" value="&lt;font style=&quot;font-size: 18px;&quot;&gt;&lt;b&gt;=&amp;nbsp;Company Manager&lt;/b&gt;&lt;/font&gt;" style="text;html=1;strokeColor=none;fillColor=none;align=left;verticalAlign=middle;whiteSpace=wrap;rounded=0;" vertex="1" parent="5Fb5_ttYT_Sp9hCFf5mJ-177">
          <mxGeometry x="140" y="217.5" width="270" height="45" as="geometry" />
        </mxCell>
        <mxCell id="5Fb5_ttYT_Sp9hCFf5mJ-131" value="&lt;font style=&quot;font-size: 18px;&quot;&gt;&lt;b&gt;=&amp;nbsp;HRM Manager&lt;/b&gt;&lt;/font&gt;" style="text;html=1;strokeColor=none;fillColor=none;align=left;verticalAlign=middle;whiteSpace=wrap;rounded=0;" vertex="1" parent="5Fb5_ttYT_Sp9hCFf5mJ-177">
          <mxGeometry x="140" y="295" width="270" height="45" as="geometry" />
        </mxCell>
        <mxCell id="5Fb5_ttYT_Sp9hCFf5mJ-132" value="&lt;font style=&quot;font-size: 18px;&quot;&gt;&lt;b&gt;=&amp;nbsp;Storekeeper&lt;/b&gt;&lt;/font&gt;" style="text;html=1;strokeColor=none;fillColor=none;align=left;verticalAlign=middle;whiteSpace=wrap;rounded=0;" vertex="1" parent="5Fb5_ttYT_Sp9hCFf5mJ-177">
          <mxGeometry x="140" y="77.5" width="270" height="45" as="geometry" />
        </mxCell>
        <mxCell id="5Fb5_ttYT_Sp9hCFf5mJ-133" value="" style="endArrow=none;html=1;rounded=0;strokeWidth=4;fillColor=#fa6800;strokeColor=#C73500;jumpStyle=arc;jumpSize=20;" edge="1" parent="5Fb5_ttYT_Sp9hCFf5mJ-177">
          <mxGeometry width="50" height="50" relative="1" as="geometry">
            <mxPoint x="2360" y="1533.5" as="sourcePoint" />
            <mxPoint x="690" y="650" as="targetPoint" />
            <Array as="points">
              <mxPoint x="3150" y="1534" />
              <mxPoint x="3160" y="3070" />
              <mxPoint x="690" y="3070" />
            </Array>
          </mxGeometry>
        </mxCell>
        <mxCell id="5Fb5_ttYT_Sp9hCFf5mJ-134" value="" style="endArrow=none;html=1;rounded=0;strokeWidth=4;exitX=1;exitY=0.3333333333333333;exitDx=0;exitDy=0;exitPerimeter=0;jumpStyle=arc;jumpSize=20;" edge="1" parent="5Fb5_ttYT_Sp9hCFf5mJ-177" source="5Fb5_ttYT_Sp9hCFf5mJ-9">
          <mxGeometry width="50" height="50" relative="1" as="geometry">
            <mxPoint x="847.5" y="2090" as="sourcePoint" />
            <mxPoint x="1070" y="2093" as="targetPoint" />
            <Array as="points">
              <mxPoint x="960" y="2093" />
            </Array>
          </mxGeometry>
        </mxCell>
        <mxCell id="5Fb5_ttYT_Sp9hCFf5mJ-135" value="" style="endArrow=none;html=1;rounded=0;strokeWidth=4;fillColor=#e3c800;strokeColor=#B09500;entryX=1;entryY=0.5;entryDx=0;entryDy=0;jumpStyle=arc;jumpSize=20;" edge="1" parent="5Fb5_ttYT_Sp9hCFf5mJ-177" target="5Fb5_ttYT_Sp9hCFf5mJ-162">
          <mxGeometry width="50" height="50" relative="1" as="geometry">
            <mxPoint x="850" y="660" as="sourcePoint" />
            <mxPoint x="1125" y="23" as="targetPoint" />
            <Array as="points">
              <mxPoint x="890" y="660" />
              <mxPoint x="890" y="23" />
              <mxPoint x="3050" y="23" />
              <mxPoint x="3040" y="2685" />
            </Array>
          </mxGeometry>
        </mxCell>
        <mxCell id="5Fb5_ttYT_Sp9hCFf5mJ-136" value="&lt;font style=&quot;font-size: 18px;&quot;&gt;&lt;b&gt;Manage Item Suppluy Report&lt;/b&gt;&lt;/font&gt;" style="ellipse;whiteSpace=wrap;html=1;fillColor=#fad7ac;strokeColor=#b46504;" vertex="1" parent="5Fb5_ttYT_Sp9hCFf5mJ-177">
          <mxGeometry x="2150" y="2520" width="220" height="90" as="geometry" />
        </mxCell>
        <mxCell id="5Fb5_ttYT_Sp9hCFf5mJ-137" value="&lt;font style=&quot;font-size: 18px;&quot;&gt;&lt;b&gt;Manage Item Sales Report&lt;/b&gt;&lt;/font&gt;" style="ellipse;whiteSpace=wrap;html=1;fillColor=#fad7ac;strokeColor=#b46504;" vertex="1" parent="5Fb5_ttYT_Sp9hCFf5mJ-177">
          <mxGeometry x="2149" y="2340" width="220" height="90" as="geometry" />
        </mxCell>
        <mxCell id="5Fb5_ttYT_Sp9hCFf5mJ-138" value="&lt;font style=&quot;font-size: 18px;&quot;&gt;&lt;b&gt;Manage Employee Salary&lt;/b&gt;&lt;/font&gt;" style="ellipse;whiteSpace=wrap;html=1;fillColor=#fad7ac;strokeColor=#b46504;" vertex="1" parent="5Fb5_ttYT_Sp9hCFf5mJ-177">
          <mxGeometry x="2140" y="1910" width="220" height="90" as="geometry" />
        </mxCell>
        <mxCell id="5Fb5_ttYT_Sp9hCFf5mJ-139" value="&lt;font style=&quot;font-size: 18px;&quot;&gt;&lt;b&gt;Manage Transaction Report&lt;/b&gt;&lt;/font&gt;" style="ellipse;whiteSpace=wrap;html=1;fillColor=#fad7ac;strokeColor=#b46504;" vertex="1" parent="5Fb5_ttYT_Sp9hCFf5mJ-177">
          <mxGeometry x="1870" y="2410" width="220" height="90" as="geometry" />
        </mxCell>
        <mxCell id="5Fb5_ttYT_Sp9hCFf5mJ-140" value="&lt;font style=&quot;font-size: 18px;&quot;&gt;&lt;b&gt;Manage Expencess&lt;/b&gt;&lt;/font&gt;" style="ellipse;whiteSpace=wrap;html=1;fillColor=#fad7ac;strokeColor=#b46504;" vertex="1" parent="5Fb5_ttYT_Sp9hCFf5mJ-177">
          <mxGeometry x="2140" y="2050" width="220" height="90" as="geometry" />
        </mxCell>
        <mxCell id="5Fb5_ttYT_Sp9hCFf5mJ-141" value="&lt;font style=&quot;font-size: 18px;&quot;&gt;&lt;b&gt;Create Customer Report&lt;/b&gt;&lt;/font&gt;" style="ellipse;whiteSpace=wrap;html=1;fillColor=#fad7ac;strokeColor=#b46504;" vertex="1" parent="5Fb5_ttYT_Sp9hCFf5mJ-177">
          <mxGeometry x="2140" y="1630" width="220" height="90" as="geometry" />
        </mxCell>
        <mxCell id="5Fb5_ttYT_Sp9hCFf5mJ-142" value="&lt;font style=&quot;font-size: 18px;&quot;&gt;&lt;b&gt;View Financial Report&lt;/b&gt;&lt;/font&gt;" style="ellipse;whiteSpace=wrap;html=1;fillColor=#fad7ac;strokeColor=#b46504;" vertex="1" parent="5Fb5_ttYT_Sp9hCFf5mJ-177">
          <mxGeometry x="1470" y="2120" width="220" height="90" as="geometry" />
        </mxCell>
        <mxCell id="5Fb5_ttYT_Sp9hCFf5mJ-143" value="&lt;font style=&quot;font-size: 18px;&quot;&gt;&lt;b&gt;Delete Employee&lt;/b&gt;&lt;/font&gt;" style="ellipse;whiteSpace=wrap;html=1;fillColor=#fad7ac;strokeColor=#b46504;" vertex="1" parent="5Fb5_ttYT_Sp9hCFf5mJ-177">
          <mxGeometry x="1070" y="2230" width="220" height="90" as="geometry" />
        </mxCell>
        <mxCell id="5Fb5_ttYT_Sp9hCFf5mJ-144" value="&lt;font style=&quot;font-size: 18px;&quot;&gt;&lt;b&gt;Register New Employee&lt;/b&gt;&lt;/font&gt;" style="ellipse;whiteSpace=wrap;html=1;fillColor=#fad7ac;strokeColor=#b46504;" vertex="1" parent="5Fb5_ttYT_Sp9hCFf5mJ-177">
          <mxGeometry x="1070" y="2050" width="220" height="90" as="geometry" />
        </mxCell>
        <mxCell id="5Fb5_ttYT_Sp9hCFf5mJ-145" value="&lt;font style=&quot;font-size: 18px;&quot;&gt;&lt;b&gt;Create Supplier Report&lt;/b&gt;&lt;/font&gt;" style="ellipse;whiteSpace=wrap;html=1;fillColor=#fad7ac;strokeColor=#b46504;" vertex="1" parent="5Fb5_ttYT_Sp9hCFf5mJ-177">
          <mxGeometry x="2140" y="1770" width="220" height="90" as="geometry" />
        </mxCell>
        <mxCell id="5Fb5_ttYT_Sp9hCFf5mJ-147" value="&lt;font style=&quot;font-size: 18px;&quot;&gt;&lt;b&gt;Manage Income&lt;/b&gt;&lt;/font&gt;" style="ellipse;whiteSpace=wrap;html=1;fillColor=#fad7ac;strokeColor=#b46504;" vertex="1" parent="5Fb5_ttYT_Sp9hCFf5mJ-177">
          <mxGeometry x="2140" y="2170" width="220" height="90" as="geometry" />
        </mxCell>
        <mxCell id="5Fb5_ttYT_Sp9hCFf5mJ-148" value="&lt;b style=&quot;border-color: var(--border-color); font-size: 14px;&quot;&gt;Include&lt;/b&gt;" style="endArrow=open;endSize=12;dashed=1;html=1;rounded=0;exitX=0.027;exitY=0.656;exitDx=0;exitDy=0;exitPerimeter=0;" edge="1" parent="5Fb5_ttYT_Sp9hCFf5mJ-177" source="5Fb5_ttYT_Sp9hCFf5mJ-137" target="5Fb5_ttYT_Sp9hCFf5mJ-139">
          <mxGeometry width="160" relative="1" as="geometry">
            <mxPoint x="1475" y="1709" as="sourcePoint" />
            <mxPoint x="1442" y="1830" as="targetPoint" />
            <Array as="points" />
          </mxGeometry>
        </mxCell>
        <mxCell id="5Fb5_ttYT_Sp9hCFf5mJ-149" value="&lt;b style=&quot;border-color: var(--border-color); font-size: 14px;&quot;&gt;Include&lt;/b&gt;" style="endArrow=open;endSize=12;dashed=1;html=1;rounded=0;" edge="1" parent="5Fb5_ttYT_Sp9hCFf5mJ-177" source="5Fb5_ttYT_Sp9hCFf5mJ-136">
          <mxGeometry width="160" relative="1" as="geometry">
            <mxPoint x="2165" y="2409" as="sourcePoint" />
            <mxPoint x="2058" y="2487" as="targetPoint" />
            <Array as="points" />
          </mxGeometry>
        </mxCell>
        <mxCell id="5Fb5_ttYT_Sp9hCFf5mJ-150" value="" style="endArrow=none;html=1;rounded=0;strokeWidth=4;fillColor=#fa6800;strokeColor=#C73500;entryX=1;entryY=1;entryDx=0;entryDy=0;entryPerimeter=0;jumpStyle=arc;jumpSize=20;" edge="1" parent="5Fb5_ttYT_Sp9hCFf5mJ-177" target="5Fb5_ttYT_Sp9hCFf5mJ-6">
          <mxGeometry width="50" height="50" relative="1" as="geometry">
            <mxPoint x="2360" y="1820" as="sourcePoint" />
            <mxPoint x="720" y="670" as="targetPoint" />
            <Array as="points">
              <mxPoint x="3310" y="1810" />
              <mxPoint x="3310" y="3220" />
              <mxPoint x="740" y="3220" />
            </Array>
          </mxGeometry>
        </mxCell>
        <mxCell id="5Fb5_ttYT_Sp9hCFf5mJ-151" value="" style="endArrow=none;html=1;rounded=0;strokeWidth=4;fillColor=#fa6800;strokeColor=#C73500;entryX=0;entryY=1;entryDx=0;entryDy=0;entryPerimeter=0;jumpStyle=arc;jumpSize=20;" edge="1" parent="5Fb5_ttYT_Sp9hCFf5mJ-177" target="5Fb5_ttYT_Sp9hCFf5mJ-6">
          <mxGeometry width="50" height="50" relative="1" as="geometry">
            <mxPoint x="2360" y="1673.5" as="sourcePoint" />
            <mxPoint x="3000" y="1680" as="targetPoint" />
            <Array as="points">
              <mxPoint x="3280" y="1670" />
              <mxPoint x="3280" y="3150" />
              <mxPoint x="700" y="3140" />
            </Array>
          </mxGeometry>
        </mxCell>
        <mxCell id="5Fb5_ttYT_Sp9hCFf5mJ-152" value="" style="endArrow=none;html=1;rounded=0;strokeWidth=4;fillColor=#fa6800;strokeColor=#C73500;jumpStyle=arc;jumpSize=20;" edge="1" parent="5Fb5_ttYT_Sp9hCFf5mJ-177">
          <mxGeometry width="50" height="50" relative="1" as="geometry">
            <mxPoint x="2360" y="2100" as="sourcePoint" />
            <mxPoint x="720" y="620" as="targetPoint" />
            <Array as="points">
              <mxPoint x="3440" y="2100" />
              <mxPoint x="3430" y="3380" />
              <mxPoint x="710" y="3380" />
            </Array>
          </mxGeometry>
        </mxCell>
        <mxCell id="5Fb5_ttYT_Sp9hCFf5mJ-153" value="" style="endArrow=none;html=1;rounded=0;strokeWidth=4;fillColor=#fa6800;strokeColor=#C73500;entryX=0.5;entryY=0.5;entryDx=0;entryDy=0;entryPerimeter=0;jumpStyle=arc;jumpSize=20;" edge="1" parent="5Fb5_ttYT_Sp9hCFf5mJ-177" target="5Fb5_ttYT_Sp9hCFf5mJ-6">
          <mxGeometry width="50" height="50" relative="1" as="geometry">
            <mxPoint x="2360" y="1953.5" as="sourcePoint" />
            <mxPoint x="3000" y="1957" as="targetPoint" />
            <Array as="points">
              <mxPoint x="3390" y="1954" />
              <mxPoint x="3390" y="3300" />
              <mxPoint x="725" y="3300" />
            </Array>
          </mxGeometry>
        </mxCell>
        <mxCell id="5Fb5_ttYT_Sp9hCFf5mJ-154" value="" style="endArrow=none;html=1;rounded=0;strokeWidth=4;fillColor=#fa6800;strokeColor=#C73500;jumpStyle=arc;jumpSize=20;" edge="1" parent="5Fb5_ttYT_Sp9hCFf5mJ-177">
          <mxGeometry width="50" height="50" relative="1" as="geometry">
            <mxPoint x="2360" y="2213.5" as="sourcePoint" />
            <mxPoint x="720" y="630" as="targetPoint" />
            <Array as="points">
              <mxPoint x="3230" y="2214" />
              <mxPoint x="3230" y="3470" />
              <mxPoint x="720" y="3470" />
            </Array>
          </mxGeometry>
        </mxCell>
        <mxCell id="5Fb5_ttYT_Sp9hCFf5mJ-155" value="" style="endArrow=none;html=1;rounded=0;strokeWidth=4;fillColor=#fa6800;strokeColor=#C73500;jumpStyle=arc;jumpSize=20;" edge="1" parent="5Fb5_ttYT_Sp9hCFf5mJ-177">
          <mxGeometry width="50" height="50" relative="1" as="geometry">
            <mxPoint x="2369" y="2390" as="sourcePoint" />
            <mxPoint x="710" y="670" as="targetPoint" />
            <Array as="points">
              <mxPoint x="3500" y="2390" />
              <mxPoint x="3500" y="3540" />
              <mxPoint x="700" y="3540" />
            </Array>
          </mxGeometry>
        </mxCell>
        <mxCell id="5Fb5_ttYT_Sp9hCFf5mJ-157" value="" style="endArrow=none;html=1;rounded=0;strokeWidth=4;fillColor=#fa6800;strokeColor=#C73500;jumpStyle=arc;jumpSize=20;" edge="1" parent="5Fb5_ttYT_Sp9hCFf5mJ-177">
          <mxGeometry width="50" height="50" relative="1" as="geometry">
            <mxPoint x="2370" y="2570" as="sourcePoint" />
            <mxPoint x="720" y="700" as="targetPoint" />
            <Array as="points">
              <mxPoint x="3070" y="2570" />
              <mxPoint x="3070" y="3620" />
              <mxPoint x="830" y="3620" />
              <mxPoint x="830" y="1870" />
              <mxPoint x="840" y="820" />
              <mxPoint x="840" y="740" />
              <mxPoint x="720" y="740" />
            </Array>
          </mxGeometry>
        </mxCell>
        <mxCell id="5Fb5_ttYT_Sp9hCFf5mJ-159" value="&lt;font style=&quot;font-size: 18px;&quot;&gt;&lt;b&gt;Update Employee Details&lt;/b&gt;&lt;/font&gt;" style="ellipse;whiteSpace=wrap;html=1;fillColor=#fad7ac;strokeColor=#b46504;" vertex="1" parent="5Fb5_ttYT_Sp9hCFf5mJ-177">
          <mxGeometry x="1070" y="2400" width="220" height="90" as="geometry" />
        </mxCell>
        <mxCell id="5Fb5_ttYT_Sp9hCFf5mJ-160" value="&lt;font style=&quot;font-size: 18px;&quot;&gt;&lt;b&gt;Viwe Supplied Invoice&lt;/b&gt;&lt;/font&gt;" style="ellipse;whiteSpace=wrap;html=1;fillColor=#fad7ac;strokeColor=#b46504;" vertex="1" parent="5Fb5_ttYT_Sp9hCFf5mJ-177">
          <mxGeometry x="1470" y="2460" width="220" height="90" as="geometry" />
        </mxCell>
        <mxCell id="5Fb5_ttYT_Sp9hCFf5mJ-161" value="&lt;font style=&quot;font-size: 18px;&quot;&gt;&lt;b&gt;Viwe Sales Invoice&lt;/b&gt;&lt;/font&gt;" style="ellipse;whiteSpace=wrap;html=1;fillColor=#fad7ac;strokeColor=#b46504;" vertex="1" parent="5Fb5_ttYT_Sp9hCFf5mJ-177">
          <mxGeometry x="1470" y="2290" width="220" height="90" as="geometry" />
        </mxCell>
        <mxCell id="5Fb5_ttYT_Sp9hCFf5mJ-162" value="&lt;font style=&quot;font-size: 18px;&quot;&gt;&lt;b&gt;View Monthly Revenue&lt;/b&gt;&lt;/font&gt;" style="ellipse;whiteSpace=wrap;html=1;fillColor=#fad7ac;strokeColor=#b46504;" vertex="1" parent="5Fb5_ttYT_Sp9hCFf5mJ-177">
          <mxGeometry x="1470" y="2640" width="220" height="90" as="geometry" />
        </mxCell>
        <mxCell id="5Fb5_ttYT_Sp9hCFf5mJ-163" value="" style="endArrow=none;html=1;rounded=0;strokeWidth=4;exitX=0.5;exitY=0.5;exitDx=0;exitDy=0;exitPerimeter=0;jumpStyle=arc;jumpSize=20;" edge="1" parent="5Fb5_ttYT_Sp9hCFf5mJ-177" source="5Fb5_ttYT_Sp9hCFf5mJ-9">
          <mxGeometry width="50" height="50" relative="1" as="geometry">
            <mxPoint x="847.5" y="2270" as="sourcePoint" />
            <mxPoint x="1070" y="2273" as="targetPoint" />
            <Array as="points">
              <mxPoint x="940" y="2273" />
            </Array>
          </mxGeometry>
        </mxCell>
        <mxCell id="5Fb5_ttYT_Sp9hCFf5mJ-164" value="" style="endArrow=none;html=1;rounded=0;strokeWidth=4;exitX=0;exitY=0.3333333333333333;exitDx=0;exitDy=0;exitPerimeter=0;jumpStyle=arc;jumpSize=20;" edge="1" parent="5Fb5_ttYT_Sp9hCFf5mJ-177" source="5Fb5_ttYT_Sp9hCFf5mJ-9">
          <mxGeometry width="50" height="50" relative="1" as="geometry">
            <mxPoint x="847.5" y="2443" as="sourcePoint" />
            <mxPoint x="1070" y="2446" as="targetPoint" />
            <Array as="points">
              <mxPoint x="910" y="2446" />
            </Array>
          </mxGeometry>
        </mxCell>
        <mxCell id="5Fb5_ttYT_Sp9hCFf5mJ-166" value="" style="endArrow=none;html=1;rounded=0;strokeWidth=4;fillColor=#e3c800;strokeColor=#B09500;exitX=1;exitY=1;exitDx=0;exitDy=0;exitPerimeter=0;entryX=1;entryY=0.5;entryDx=0;entryDy=0;jumpStyle=arc;jumpSize=20;" edge="1" parent="5Fb5_ttYT_Sp9hCFf5mJ-177" source="5Fb5_ttYT_Sp9hCFf5mJ-7" target="5Fb5_ttYT_Sp9hCFf5mJ-160">
          <mxGeometry width="50" height="50" relative="1" as="geometry">
            <mxPoint x="680" y="30" as="sourcePoint" />
            <mxPoint x="2070" y="33" as="targetPoint" />
            <Array as="points">
              <mxPoint x="860" y="40" />
              <mxPoint x="3100" y="40" />
              <mxPoint x="3120" y="3710" />
              <mxPoint x="1860" y="3710" />
              <mxPoint x="1860" y="2505" />
            </Array>
          </mxGeometry>
        </mxCell>
        <mxCell id="5Fb5_ttYT_Sp9hCFf5mJ-167" value="" style="endArrow=none;html=1;rounded=0;strokeWidth=4;fillColor=#e3c800;strokeColor=#B09500;exitX=0.46;exitY=0.813;exitDx=0;exitDy=0;exitPerimeter=0;entryX=1;entryY=0.5;entryDx=0;entryDy=0;jumpStyle=arc;jumpSize=20;" edge="1" parent="5Fb5_ttYT_Sp9hCFf5mJ-177" source="5Fb5_ttYT_Sp9hCFf5mJ-7" target="5Fb5_ttYT_Sp9hCFf5mJ-142">
          <mxGeometry width="50" height="50" relative="1" as="geometry">
            <mxPoint x="690" y="40" as="sourcePoint" />
            <mxPoint x="1850" y="100" as="targetPoint" />
            <Array as="points">
              <mxPoint x="830" y="100" />
              <mxPoint x="2900" y="110" />
              <mxPoint x="2900" y="3020" />
              <mxPoint x="1790" y="3030" />
              <mxPoint x="1790" y="2165" />
            </Array>
          </mxGeometry>
        </mxCell>
        <mxCell id="5Fb5_ttYT_Sp9hCFf5mJ-168" value="" style="endArrow=none;html=1;rounded=0;strokeWidth=4;fillColor=#e3c800;strokeColor=#B09500;exitX=0;exitY=1;exitDx=0;exitDy=0;exitPerimeter=0;jumpStyle=arc;jumpSize=20;" edge="1" parent="5Fb5_ttYT_Sp9hCFf5mJ-177" source="5Fb5_ttYT_Sp9hCFf5mJ-7">
          <mxGeometry width="50" height="50" relative="1" as="geometry">
            <mxPoint x="700" y="50" as="sourcePoint" />
            <mxPoint x="1680" y="2335" as="targetPoint" />
            <Array as="points">
              <mxPoint x="800" y="60" />
              <mxPoint x="2990" y="70" />
              <mxPoint x="2990" y="2335" />
            </Array>
          </mxGeometry>
        </mxCell>
        <mxCell id="5Fb5_ttYT_Sp9hCFf5mJ-170" value="&lt;span style=&quot;font-size: 52px;&quot;&gt;&amp;lt;&amp;lt;Tax Calculator&amp;gt;&amp;gt;&lt;/span&gt;" style="rounded=0;whiteSpace=wrap;html=1;fillColor=#0050ef;fontColor=#ffffff;strokeColor=#001DBC;" vertex="1" parent="5Fb5_ttYT_Sp9hCFf5mJ-177">
          <mxGeometry x="3220" y="814" width="570" height="300" as="geometry" />
        </mxCell>
        <mxCell id="5Fb5_ttYT_Sp9hCFf5mJ-171" value="&lt;font style=&quot;font-size: 52px;&quot;&gt;&amp;lt;&amp;lt;Goverment Tax Argancy&amp;gt;&amp;gt;&lt;/font&gt;" style="rounded=0;whiteSpace=wrap;html=1;fillColor=#0050ef;fontColor=#ffffff;strokeColor=#001DBC;" vertex="1" parent="5Fb5_ttYT_Sp9hCFf5mJ-177">
          <mxGeometry x="3230" y="1240" width="720" height="290" as="geometry" />
        </mxCell>
        <mxCell id="5Fb5_ttYT_Sp9hCFf5mJ-172" value="&lt;font style=&quot;font-size: 52px;&quot;&gt;&amp;lt;&amp;lt;Onlie Mail Service&amp;gt;&amp;gt;&lt;/font&gt;" style="rounded=0;whiteSpace=wrap;html=1;fillColor=#0050ef;fontColor=#ffffff;strokeColor=#001DBC;" vertex="1" parent="5Fb5_ttYT_Sp9hCFf5mJ-177">
          <mxGeometry x="3260" y="262.5" width="570" height="290" as="geometry" />
        </mxCell>
        <mxCell id="5Fb5_ttYT_Sp9hCFf5mJ-174" value="" style="endArrow=none;html=1;rounded=0;exitX=0.5;exitY=1;exitDx=0;exitDy=0;entryX=1;entryY=0.5;entryDx=0;entryDy=0;strokeWidth=4;fillColor=#0050ef;strokeColor=#001DBC;jumpStyle=arc;jumpSize=20;" edge="1" parent="5Fb5_ttYT_Sp9hCFf5mJ-177" source="5Fb5_ttYT_Sp9hCFf5mJ-42" target="5Fb5_ttYT_Sp9hCFf5mJ-172">
          <mxGeometry width="50" height="50" relative="1" as="geometry">
            <mxPoint x="2170" y="2050" as="sourcePoint" />
            <mxPoint x="2220" y="2000" as="targetPoint" />
            <Array as="points">
              <mxPoint x="1420" y="2040" />
              <mxPoint x="4150" y="2040" />
              <mxPoint x="4140" y="408" />
            </Array>
          </mxGeometry>
        </mxCell>
        <mxCell id="5Fb5_ttYT_Sp9hCFf5mJ-175" value="" style="endArrow=none;html=1;rounded=0;exitX=0;exitY=1;exitDx=0;exitDy=0;entryX=1;entryY=0.5;entryDx=0;entryDy=0;strokeWidth=4;fillColor=#0050ef;strokeColor=#001DBC;jumpStyle=arc;jumpSize=20;" edge="1" parent="5Fb5_ttYT_Sp9hCFf5mJ-177" source="5Fb5_ttYT_Sp9hCFf5mJ-42" target="5Fb5_ttYT_Sp9hCFf5mJ-170">
          <mxGeometry width="50" height="50" relative="1" as="geometry">
            <mxPoint x="2490" y="1730" as="sourcePoint" />
            <mxPoint x="2540" y="1680" as="targetPoint" />
            <Array as="points">
              <mxPoint x="1330" y="3790" />
              <mxPoint x="4300" y="3790" />
              <mxPoint x="4300" y="964" />
            </Array>
          </mxGeometry>
        </mxCell>
        <mxCell id="5Fb5_ttYT_Sp9hCFf5mJ-176" value="" style="endArrow=none;html=1;rounded=0;exitX=0.5;exitY=1;exitDx=0;exitDy=0;entryX=1;entryY=0.5;entryDx=0;entryDy=0;strokeWidth=4;fillColor=#0050ef;strokeColor=#001DBC;jumpStyle=arc;jumpSize=20;" edge="1" parent="5Fb5_ttYT_Sp9hCFf5mJ-177" source="5Fb5_ttYT_Sp9hCFf5mJ-139" target="5Fb5_ttYT_Sp9hCFf5mJ-171">
          <mxGeometry width="50" height="50" relative="1" as="geometry">
            <mxPoint x="2010" y="2280" as="sourcePoint" />
            <mxPoint x="2060" y="2230" as="targetPoint" />
            <Array as="points">
              <mxPoint x="1980" y="3880" />
              <mxPoint x="4420" y="3870" />
              <mxPoint x="4420" y="1385" />
            </Array>
          </mxGeometry>
        </mxCell>
      </root>
    </mxGraphModel>
  </diagram>
</mxfile>
